<?xml version="1.0" standalone="no"?><!DOCTYPE svg PUBLIC "-//W3C//DTD SVG 1.1//EN" "http://www.w3.org/Graphics/SVG/1.1/DTD/svg11.dtd"><svg t="1591063816080" class="icon" viewBox="0 0 1536 1024" version="1.1" xmlns="http://www.w3.org/2000/svg" p-id="9423" xmlns:xlink="http://www.w3.org/1999/xlink" width="300" height="200"><defs><style type="text/css"></style></defs><path d="M737.962667 460.970667H461.824c-9.728-1.194667-19.456 3.242667-24.746667 11.605333-5.290667 8.362667-5.290667 18.944 0 27.306667s15.018667 12.8 24.746667 11.605333h276.138667c9.728 1.194667 19.456-3.242667 24.746666-11.605333 5.290667-8.362667 5.290667-18.944 0-27.306667-5.290667-8.192-14.848-12.8-24.746666-11.605333zM1241.088 440.832l-17.578667-17.749333c-18.944-19.797333-45.056-31.061333-72.362666-30.890667-27.306667 0-53.418667 11.434667-72.192 31.402667L707.584 795.136c-6.485333 5.973333-10.24 14.506667-10.069333 23.210667l0.682666 110.08c0.170667 10.069333 4.266667 19.797333 11.434667 26.794666 7.338667 7.168 17.066667 11.264 27.306667 11.093334l109.226666 0.682666c9.386667 1.024 18.773333-1.877333 25.941334-7.850666l370.858666-371.370667c19.626667-19.626667 30.549333-46.250667 30.208-74.069333-0.341333-27.477333-11.946667-53.930667-32.085333-72.874667zM746.837333 917.674667v-83.797334l83.626667 83.797334h-83.626667z m125.269334-29.866667l-93.013334-92.672 286.378667-286.72 93.184 93.013333L872.106667 887.808z m335.530666-335.530667l-13.312 13.312-93.013333-93.184 13.312-13.312c9.216-10.410667 22.528-16.384 36.522667-16.384s27.136 5.973333 36.522666 16.384l17.749334 17.066667c10.752 9.557333 17.066667 23.04 17.408 37.546667 0.512 14.506667-4.949333 28.501333-15.189334 38.570666zM878.592 293.888c-1.024-15.018667-14.165333-26.282667-29.184-25.258667h-387.413333c-14.848-0.853333-27.648 10.410667-28.842667 25.258667 1.194667 14.848 13.994667 26.112 28.842667 25.258667h387.413333c15.018667 1.194667 27.989333-10.069333 29.184-25.258667z" p-id="9424"></path><path d="M630.442667 916.650667H367.786667c-30.890667-0.170667-55.978667-25.088-56.149334-56.149334V163.498667c0.170667-31.061333 25.088-56.32 56.149334-56.832h595.968c31.232 0.512 56.32 25.6 56.661333 56.832v216.576c2.389333 11.776 12.8 20.309333 24.746667 20.309333 12.117333 0 23.381333-7.338667 25.6-18.090667l0.170666-2.218666V163.498667c-0.341333-59.050667-48.128-107.008-107.178666-107.349334H367.786667c-59.050667 0.512-106.666667 48.298667-106.837334 107.349334v697.173333c0.170667 58.88 47.957333 106.666667 106.837334 106.666667h262.656c9.045333 0 17.408-4.778667 21.845333-12.629334 4.608-7.850667 4.608-17.408 0-25.258666-4.437333-8.021333-12.8-12.8-21.845333-12.8z" p-id="9425"></path></svg>