<?xml version="1.0" standalone="no"?><!DOCTYPE svg PUBLIC "-//W3C//DTD SVG 1.1//EN" "http://www.w3.org/Graphics/SVG/1.1/DTD/svg11.dtd"><svg t="1589721019673" class="icon" viewBox="0 0 1024 1024" version="1.1" xmlns="http://www.w3.org/2000/svg" p-id="3111" xmlns:xlink="http://www.w3.org/1999/xlink" width="200" height="200"><defs><style type="text/css"></style></defs><path fill='red' d="M560.284862 250.880386a150.597969 150.597969 0 0 0 106.44895 256.978682 153.736848 153.736848 0 0 0 34.118253-3.957718 148.892056 148.892056 0 0 0 72.330696-40.191302A150.529733 150.529733 0 1 0 560.284862 250.880386z m172.638361 120.983325a65.984701 65.984701 0 0 1-50.495015 51.518562 67.895324 67.895324 0 1 1-15.694396-133.948261 68.782398 68.782398 0 0 1 48.447919 19.856823 66.325884 66.325884 0 0 1 17.741492 62.572876z m290.005151 56.43159l-20.470952-280.656749A138.724817 138.724817 0 0 0 875.53752 20.991596l-279.769675-20.470951a175.981949 175.981949 0 0 0-137.155377 51.177379L51.922891 458.319364a175.913713 175.913713 0 0 0 0 249.131484l264.075279 264.552934a176.732551 176.732551 0 0 0 249.745612 0l406.007212-406.41663a173.116016 173.116016 0 0 0 51.17738-137.291851z m-109.17841 79.222584l-406.689577 406.416631a93.688723 93.688723 0 0 1-132.378822 0L109.923922 649.381581a94.234615 94.234615 0 0 1 0-132.310585l406.689576-406.62134a94.439324 94.439324 0 0 1 66.189411-27.294603h6.823651l279.769675 20.12977a54.930387 54.930387 0 0 1 50.495014 50.222068l21.153317 280.724987a94.166378 94.166378 0 0 1-27.294602 73.286007z" p-id="3112"></path></svg>